<svg width="44" height="44" viewBox="0 0 44 44" fill="none" xmlns="http://www.w3.org/2000/svg">
<path fill-rule="evenodd" clip-rule="evenodd" d="M25.8277 1.58549C23.7137 -0.528499 20.2863 -0.528497 18.1723 1.58549L1.58549 18.1723C-0.528499 20.2863 -0.528497 23.7137 1.58549 25.8277L18.1723 42.4145C20.2863 44.5285 23.7137 44.5285 25.8277 42.4145L30.2227 38.0195V35.2337L29.7096 35.0213L24.4119 40.2509C23.0031 41.6416 20.737 41.6378 19.3328 40.2425L3.60616 24.6146C2.17994 23.1973 2.18705 20.8878 3.62196 19.4793L19.3486 4.0425C20.749 2.66793 22.991 2.66422 24.396 4.03414L40.2273 19.471C41.6736 20.8812 41.6808 23.2039 40.2432 24.623L33.287 31.4898L24.7737 23.3196C24.9736 22.9051 25.0857 22.4404 25.0857 21.9494C25.0857 20.2055 23.6719 18.7917 21.9279 18.7917C20.184 18.7917 18.7702 20.2055 18.7702 21.9494C18.7702 23.6934 20.184 25.1071 21.9279 25.1071C22.3014 25.1071 22.6597 25.0423 22.9923 24.9233L31.5114 32.9387L31.5127 32.9372L31.5489 32.974L31.669 33.087L31.6646 33.0913L32.2836 33.7192V35.9586L32.3044 35.9378V41.9826C32.3044 42.6222 32.8229 43.1406 33.4624 43.1406C34.102 43.1406 34.6204 42.6222 34.6204 41.9826V33.6218L42.4145 25.8277C44.5285 23.7137 44.5285 20.2863 42.4145 18.1723L25.8277 1.58549Z" fill="#1CB5E0"/>
</svg>
