<svg width="60" height="60" viewBox="0 0 60 60" fill="none" xmlns="http://www.w3.org/2000/svg">
<rect width="60" height="60" rx="30" fill="white"/>
<path fill-rule="evenodd" clip-rule="evenodd" d="M51.9988 27.1391C53.032 28.9064 53.032 31.0936 51.9988 32.8609L43.4771 47.4372C42.4605 49.176 40.5976 50.2448 38.5835 50.2448H21.4165C19.4024 50.2448 17.5395 49.176 16.5229 47.4372L8.00122 32.8609C6.96798 31.0936 6.96798 28.9064 8.00122 27.1391L16.5229 12.5628C17.5395 10.824 19.4024 9.75519 21.4165 9.75519H38.5835C40.5976 9.75519 42.4605 10.824 43.4771 12.5628L51.9988 27.1391ZM14.1867 32.2283L20.4866 43.0041C20.2097 43.3732 20.0453 43.8336 20.0453 44.3328C20.0453 45.5471 21.0175 46.5315 22.2166 46.5315C23.3538 46.5315 24.2868 45.6462 24.3802 44.5192H35.6414C35.6725 44.8279 35.7666 45.1177 35.9105 45.3752C36.2667 46.0581 36.9751 46.5236 37.7909 46.5236C38.3968 46.5236 38.9436 46.2668 39.3307 45.8547C39.7272 45.4564 39.9727 44.9042 39.9727 44.2939C39.9727 43.7829 39.8005 43.3125 39.5116 42.9391L45.8048 32.1747C45.954 32.2075 46.1089 32.2248 46.2678 32.2248C47.467 32.2248 48.4391 31.2404 48.4391 30.0261C48.4391 28.8119 47.467 27.8275 46.2678 27.8275C46.1947 27.8275 46.1225 27.8311 46.0513 27.8383L39.6385 16.8693C39.8379 16.5369 39.9527 16.1467 39.9527 15.7294C39.9527 14.9784 39.5809 14.3153 39.0135 13.9187C38.6677 13.672 38.246 13.5271 37.7909 13.5271C37.6161 13.5271 37.4462 13.5485 37.2837 13.5888C36.5354 13.7665 35.9362 14.3362 35.7089 15.0722H24.2652C24.2257 14.9577 24.1771 14.8475 24.1203 14.7426C23.7764 14.0232 23.0486 13.5271 22.2064 13.5271C21.2547 13.5271 20.4491 14.1606 20.1784 15.0338C20.0913 15.2718 20.0437 15.5292 20.0437 15.7979C20.0437 16.188 20.1441 16.5544 20.3201 16.8721L13.8868 27.8762C13.846 27.8739 13.8049 27.8727 13.7635 27.8727C13.7451 27.8727 13.7267 27.873 13.7084 27.8734L13.7058 27.8734C12.5321 27.8734 11.5806 28.8369 11.5806 30.0254C11.5806 30.2019 11.6016 30.3734 11.6412 30.5376C11.8524 31.5279 12.7224 32.27 13.7635 32.27C13.9083 32.27 14.0498 32.2556 14.1867 32.2283ZM15.5842 28.873C15.806 29.2177 15.9348 29.6293 15.9348 30.0714C15.9348 30.4645 15.8329 30.8336 15.6544 31.1529L19.459 37.8263L32.4124 30.9388C32.4061 30.8702 32.4028 30.8006 32.4028 30.7303C32.4028 29.516 33.3749 28.5317 34.5741 28.5317C35.7732 28.5317 36.7453 29.516 36.7453 30.7303C36.7453 31.9446 35.7732 32.9289 34.5741 32.9289C34.1385 32.9289 33.733 32.7991 33.393 32.5755L20.4031 39.4824L21.9261 42.1537C22.0211 42.1408 22.1181 42.1342 22.2166 42.1342C22.9851 42.1342 23.6604 42.5385 24.0463 43.1485L35.9886 43.0835C36.3771 42.4881 37.044 42.0953 37.8015 42.0953C37.9535 42.0953 38.1019 42.1111 38.2452 42.1413L44.5015 31.305C44.2466 30.9447 44.0965 30.5032 44.0965 30.0261C44.0965 29.4504 44.3151 28.9263 44.6728 28.5343L40.7109 21.585L27.328 28.7008C27.3296 28.7355 27.3304 28.7704 27.3304 28.8055C27.3304 30.0197 26.3583 31.0041 25.1591 31.0041C23.96 31.0041 22.9879 30.0197 22.9879 28.8055C22.9879 27.5912 23.96 26.6068 25.1591 26.6068C25.6329 26.6068 26.0712 26.7605 26.4281 27.0212L39.7667 19.929L38.546 17.7878C38.3082 17.8785 38.0506 17.928 37.7815 17.928C36.8794 17.928 36.1058 17.371 35.7779 16.5781L24.2209 16.641C23.8943 17.4368 23.1192 17.9965 22.215 17.9965C22.1007 17.9965 21.9884 17.9875 21.8789 17.9703L15.5842 28.873Z" fill="#1CA3C2"/>
</svg>
